<mxfile host="app.diagrams.net" modified="2024-11-14T02:18:11.220Z" agent="Mozilla/5.0 (Windows NT 10.0; Win64; x64) AppleWebKit/537.36 (KHTML, like Gecko) Chrome/130.0.0.0 Safari/537.36 Edg/130.0.0.0" etag="5PVnwEqsvrVLp3iFHF8T" version="24.6.4" type="github">
  <diagram name="Page-1" id="pIMP0qSnNUupX3cAHahL">
    <mxGraphModel dx="1056" dy="586" grid="1" gridSize="10" guides="1" tooltips="1" connect="1" arrows="1" fold="1" page="1" pageScale="1" pageWidth="850" pageHeight="1100" math="0" shadow="0">
      <root>
        <mxCell id="0" />
        <mxCell id="1" parent="0" />
        <mxCell id="GrmwuS8SI0EwRuDp_LHG-13" value="" style="rounded=1;whiteSpace=wrap;html=1;" vertex="1" parent="1">
          <mxGeometry x="500" y="170" width="200" height="280" as="geometry" />
        </mxCell>
        <mxCell id="GrmwuS8SI0EwRuDp_LHG-14" value="Bustech K10 Node 4" style="text;html=1;align=center;verticalAlign=middle;whiteSpace=wrap;rounded=0;" vertex="1" parent="1">
          <mxGeometry x="530" y="170" width="130" height="30" as="geometry" />
        </mxCell>
        <mxCell id="GrmwuS8SI0EwRuDp_LHG-11" value="" style="rounded=1;whiteSpace=wrap;html=1;" vertex="1" parent="1">
          <mxGeometry x="30" y="180" width="200" height="200" as="geometry" />
        </mxCell>
        <mxCell id="GrmwuS8SI0EwRuDp_LHG-8" style="edgeStyle=orthogonalEdgeStyle;rounded=0;orthogonalLoop=1;jettySize=auto;html=1;entryX=0;entryY=0.5;entryDx=0;entryDy=0;" edge="1" parent="1" source="GrmwuS8SI0EwRuDp_LHG-1" target="GrmwuS8SI0EwRuDp_LHG-4">
          <mxGeometry relative="1" as="geometry" />
        </mxCell>
        <mxCell id="GrmwuS8SI0EwRuDp_LHG-1" value="XCB801F:27&lt;div&gt;CAN Low&lt;/div&gt;&lt;div&gt;Green&lt;/div&gt;" style="rounded=1;whiteSpace=wrap;html=1;" vertex="1" parent="1">
          <mxGeometry x="70" y="220" width="120" height="50" as="geometry" />
        </mxCell>
        <mxCell id="GrmwuS8SI0EwRuDp_LHG-9" style="edgeStyle=orthogonalEdgeStyle;rounded=0;orthogonalLoop=1;jettySize=auto;html=1;" edge="1" parent="1" source="GrmwuS8SI0EwRuDp_LHG-2" target="GrmwuS8SI0EwRuDp_LHG-3">
          <mxGeometry relative="1" as="geometry" />
        </mxCell>
        <mxCell id="GrmwuS8SI0EwRuDp_LHG-2" value="XCB801F:26&lt;div&gt;CAN High&lt;/div&gt;&lt;div&gt;Yellow&lt;/div&gt;" style="rounded=1;whiteSpace=wrap;html=1;" vertex="1" parent="1">
          <mxGeometry x="70" y="280" width="120" height="50" as="geometry" />
        </mxCell>
        <mxCell id="GrmwuS8SI0EwRuDp_LHG-3" value="&lt;div&gt;K10 Node 4&lt;/div&gt;B8" style="rounded=1;whiteSpace=wrap;html=1;" vertex="1" parent="1">
          <mxGeometry x="540" y="287.5" width="120" height="35" as="geometry" />
        </mxCell>
        <mxCell id="GrmwuS8SI0EwRuDp_LHG-4" value="&lt;div&gt;K10 Node 4&lt;/div&gt;B9" style="rounded=1;whiteSpace=wrap;html=1;" vertex="1" parent="1">
          <mxGeometry x="540" y="227.5" width="120" height="35" as="geometry" />
        </mxCell>
        <mxCell id="GrmwuS8SI0EwRuDp_LHG-6" value="&lt;div&gt;K10 Node 4&lt;/div&gt;B14" style="rounded=1;whiteSpace=wrap;html=1;" vertex="1" parent="1">
          <mxGeometry x="540" y="390" width="120" height="40" as="geometry" />
        </mxCell>
        <mxCell id="GrmwuS8SI0EwRuDp_LHG-10" style="edgeStyle=orthogonalEdgeStyle;rounded=0;orthogonalLoop=1;jettySize=auto;html=1;exitX=0;exitY=0.5;exitDx=0;exitDy=0;entryX=0;entryY=0.5;entryDx=0;entryDy=0;exitPerimeter=0;" edge="1" parent="1" source="GrmwuS8SI0EwRuDp_LHG-7" target="GrmwuS8SI0EwRuDp_LHG-6">
          <mxGeometry relative="1" as="geometry">
            <mxPoint x="530" y="420" as="targetPoint" />
            <Array as="points">
              <mxPoint x="440" y="360" />
              <mxPoint x="440" y="410" />
            </Array>
          </mxGeometry>
        </mxCell>
        <mxCell id="GrmwuS8SI0EwRuDp_LHG-7" value="&lt;div&gt;K10 Node 4&lt;/div&gt;B11" style="rounded=1;whiteSpace=wrap;html=1;" vertex="1" parent="1">
          <mxGeometry x="540" y="340" width="120" height="40" as="geometry" />
        </mxCell>
        <mxCell id="GrmwuS8SI0EwRuDp_LHG-12" value="Volvo Main Electrical" style="text;html=1;align=center;verticalAlign=middle;whiteSpace=wrap;rounded=0;" vertex="1" parent="1">
          <mxGeometry x="60" y="180" width="130" height="30" as="geometry" />
        </mxCell>
        <mxCell id="GrmwuS8SI0EwRuDp_LHG-15" value="&lt;font style=&quot;font-size: 20px;&quot;&gt;&lt;u&gt;Connecting Volvo ECAN to Bustech Vehicle&lt;/u&gt;&lt;/font&gt;" style="text;html=1;align=center;verticalAlign=middle;whiteSpace=wrap;rounded=0;" vertex="1" parent="1">
          <mxGeometry x="170" y="120" width="400" height="30" as="geometry" />
        </mxCell>
        <mxCell id="GrmwuS8SI0EwRuDp_LHG-16" value="Yellow Link" style="text;html=1;align=center;verticalAlign=middle;whiteSpace=wrap;rounded=0;" vertex="1" parent="1">
          <mxGeometry x="390" y="370" width="60" height="30" as="geometry" />
        </mxCell>
        <mxCell id="GrmwuS8SI0EwRuDp_LHG-17" value="Yellow&lt;span style=&quot;color: rgba(0, 0, 0, 0); font-family: monospace; font-size: 0px; text-align: start; text-wrap-mode: nowrap;&quot;&gt;%3CmxGraphModel%3E%3Croot%3E%3CmxCell%20id%3D%220%22%2F%3E%3CmxCell%20id%3D%221%22%20parent%3D%220%22%2F%3E%3CmxCell%20id%3D%222%22%20value%3D%22%22%20style%3D%22rounded%3D1%3BwhiteSpace%3Dwrap%3Bhtml%3D1%3B%22%20vertex%3D%221%22%20parent%3D%221%22%3E%3CmxGeometry%20x%3D%2230%22%20y%3D%22180%22%20width%3D%22200%22%20height%3D%22200%22%20as%3D%22geometry%22%2F%3E%3C%2FmxCell%3E%3CmxCell%20id%3D%223%22%20value%3D%22Volvo%20Main%20Electrical%22%20style%3D%22text%3Bhtml%3D1%3Balign%3Dcenter%3BverticalAlign%3Dmiddle%3BwhiteSpace%3Dwrap%3Brounded%3D0%3B%22%20vertex%3D%221%22%20parent%3D%221%22%3E%3CmxGeometry%20x%3D%2260%22%20y%3D%22180%22%20width%3D%22130%22%20height%3D%2230%22%20as%3D%22geometry%22%2F%3E%3C%2FmxCell%3E%3C%2Froot%3E%3C%2FmxGraphModel%3E&lt;/span&gt;" style="text;html=1;align=center;verticalAlign=middle;whiteSpace=wrap;rounded=0;" vertex="1" parent="1">
          <mxGeometry x="340" y="280" width="60" height="30" as="geometry" />
        </mxCell>
        <mxCell id="GrmwuS8SI0EwRuDp_LHG-19" value="Green" style="text;html=1;align=center;verticalAlign=middle;whiteSpace=wrap;rounded=0;" vertex="1" parent="1">
          <mxGeometry x="340" y="220" width="60" height="30" as="geometry" />
        </mxCell>
      </root>
    </mxGraphModel>
  </diagram>
</mxfile>
